<svg id="Capa_1" enable-background="new 0 0 552.47 552.47" height="512" viewBox="0 0 552.47 552.47" width="512" xmlns="http://www.w3.org/2000/svg"><path d="m276.243 0c-114.237 0-207.184 123.922-207.184 276.235s92.947 276.235 207.184 276.235 207.168-123.922 207.168-276.235-92.93-276.235-207.168-276.235zm0 517.941c-95.236 0-172.719-108.427-172.719-241.706s77.483-241.706 172.719-241.706c95.219 0 172.702 108.427 172.702 241.706s-77.482 241.706-172.702 241.706z"/><path d="m276.235 483.411c0-.192-.008-.356-.008-.548-.055.084-.341.546-.341.546z"/><path d="m275.885 69.057c0 .192.008.354.008.546.055-.084.341-.546.341-.546z"/><path d="m241.356 207.174c0 86.216 34.787 120.796 34.871 275.689 1.88-2.858 34.538-53.71 34.538-137.57 0-86.218-34.787-120.798-34.871-275.691-1.88 2.858-34.538 53.712-34.538 137.572z"/></svg>